<?xml version="1.0" encoding="UTF-8" standalone="no"?>
<svg xmlns="http://www.w3.org/2000/svg" version="1.2" baseProfile="tiny" width="768" height="768">
<g fill="black">
<path d="M 486 95 L 485 96 L 474 96 L 473 97 L 464 97 L 463 98 L 456 98 L 455 99 L 449 99 L 448 100 L 442 100 L 441 101 L 436 101 L 435 102 L 431 102 L 430 103 L 426 103 L 425 104 L 422 104 L 421 105 L 417 105 L 416 106 L 413 106 L 412 107 L 409 107 L 408 108 L 405 108 L 404 109 L 401 109 L 400 110 L 398 110 L 397 111 L 394 111 L 393 112 L 391 112 L 390 113 L 388 113 L 387 114 L 384 114 L 383 115 L 381 115 L 380 116 L 378 116 L 377 117 L 375 117 L 374 118 L 372 118 L 371 119 L 369 119 L 368 120 L 367 120 L 366 121 L 364 121 L 363 122 L 361 122 L 360 123 L 359 123 L 358 124 L 356 124 L 355 125 L 354 125 L 353 126 L 351 126 L 350 127 L 349 127 L 348 128 L 346 128 L 345 129 L 344 129 L 343 130 L 342 130 L 341 131 L 340 131 L 339 132 L 337 132 L 336 133 L 335 133 L 334 134 L 333 134 L 332 135 L 331 135 L 330 136 L 328 136 L 327 137 L 326 137 L 325 138 L 324 138 L 323 139 L 322 139 L 321 140 L 320 140 L 319 141 L 318 141 L 317 142 L 316 142 L 314 144 L 313 144 L 312 145 L 311 145 L 310 146 L 309 146 L 308 147 L 307 147 L 306 148 L 305 148 L 303 150 L 302 150 L 301 151 L 300 151 L 299 152 L 298 152 L 296 154 L 295 154 L 294 155 L 293 155 L 291 157 L 290 157 L 289 158 L 288 158 L 286 160 L 285 160 L 283 162 L 282 162 L 280 164 L 279 164 L 277 166 L 276 166 L 274 168 L 273 168 L 271 170 L 270 170 L 268 172 L 267 172 L 264 175 L 263 175 L 260 178 L 259 178 L 256 181 L 255 181 L 252 184 L 251 184 L 246 189 L 245 189 L 241 193 L 240 193 L 234 199 L 233 199 L 219 213 L 218 213 L 209 222 L 209 223 L 198 234 L 198 235 L 192 241 L 192 242 L 187 247 L 187 248 L 183 252 L 183 253 L 179 257 L 179 258 L 176 261 L 176 262 L 174 264 L 174 265 L 171 268 L 171 269 L 169 271 L 169 272 L 166 275 L 166 276 L 164 278 L 164 279 L 162 281 L 162 282 L 160 284 L 160 285 L 159 286 L 159 287 L 157 289 L 157 290 L 155 292 L 155 293 L 153 295 L 153 296 L 152 297 L 152 298 L 150 300 L 150 301 L 149 302 L 149 303 L 148 304 L 148 305 L 146 307 L 146 308 L 145 309 L 145 310 L 144 311 L 144 312 L 143 313 L 143 314 L 142 315 L 142 316 L 141 317 L 141 318 L 140 319 L 140 320 L 139 321 L 139 322 L 137 324 L 137 325 L 136 326 L 136 328 L 134 330 L 134 332 L 133 333 L 133 334 L 132 335 L 132 336 L 131 337 L 131 338 L 130 339 L 130 340 L 129 341 L 129 343 L 128 344 L 128 345 L 127 346 L 127 347 L 126 348 L 126 350 L 125 351 L 125 352 L 124 353 L 124 355 L 123 356 L 123 357 L 122 358 L 122 360 L 121 361 L 121 362 L 120 363 L 120 365 L 119 366 L 119 368 L 118 369 L 118 371 L 117 372 L 117 373 L 116 374 L 116 377 L 115 378 L 115 379 L 114 380 L 114 383 L 113 384 L 113 386 L 112 387 L 112 389 L 111 390 L 111 392 L 110 393 L 110 396 L 109 397 L 109 399 L 108 400 L 108 403 L 107 404 L 107 407 L 106 408 L 106 411 L 105 412 L 105 415 L 104 416 L 104 420 L 103 421 L 103 424 L 102 425 L 102 430 L 101 431 L 101 435 L 100 436 L 100 441 L 99 442 L 99 447 L 98 448 L 98 455 L 97 456 L 97 463 L 96 464 L 96 474 L 95 475 L 95 489 L 94 490 L 94 530 L 95 531 L 95 545 L 96 546 L 96 555 L 97 556 L 97 563 L 98 564 L 98 570 L 99 571 L 99 577 L 100 578 L 100 582 L 101 583 L 101 588 L 102 589 L 102 593 L 103 594 L 103 598 L 104 599 L 104 602 L 105 603 L 105 606 L 106 607 L 106 610 L 107 611 L 107 614 L 108 615 L 108 618 L 109 619 L 109 622 L 110 623 L 110 625 L 111 626 L 111 629 L 112 630 L 112 632 L 113 633 L 113 635 L 114 636 L 114 638 L 115 639 L 115 641 L 116 642 L 116 644 L 117 645 L 117 647 L 118 648 L 118 650 L 119 651 L 119 653 L 120 654 L 120 656 L 121 657 L 121 658 L 122 659 L 122 661 L 123 662 L 123 663 L 124 664 L 124 666 L 125 667 L 125 668 L 126 669 L 126 671 L 127 672 L 127 673 L 128 674 L 128 675 L 129 676 L 129 678 L 130 679 L 130 680 L 131 681 L 131 682 L 132 683 L 132 684 L 133 685 L 133 686 L 134 687 L 134 689 L 135 690 L 135 691 L 136 692 L 136 693 L 137 694 L 137 695 L 138 696 L 138 697 L 139 698 L 139 699 L 140 700 L 140 701 L 141 702 L 141 703 L 143 705 L 143 706 L 144 707 L 144 708 L 145 709 L 145 710 L 146 711 L 146 712 L 147 713 L 147 714 L 149 716 L 149 717 L 150 718 L 150 719 L 151 720 L 151 721 L 153 723 L 153 724 L 154 725 L 154 726 L 156 728 L 156 729 L 158 731 L 158 732 L 159 733 L 159 734 L 162 737 L 162 738 L 163 739 L 163 740 L 166 743 L 166 744 L 168 746 L 168 747 L 170 749 L 170 750 L 173 753 L 173 754 L 175 756 L 175 757 L 178 760 L 178 761 L 182 765 L 182 766 L 186 770 L 186 771 L 191 776 L 191 777 L 196 782 L 196 783 L 207 794 L 207 795 L 226 814 L 227 814 L 237 824 L 238 824 L 243 829 L 244 829 L 249 834 L 250 834 L 254 838 L 255 838 L 259 842 L 260 842 L 263 845 L 264 845 L 266 847 L 267 847 L 270 850 L 271 850 L 273 852 L 274 852 L 277 855 L 278 855 L 280 857 L 281 857 L 283 859 L 284 859 L 286 861 L 287 861 L 288 862 L 289 862 L 290 863 L 291 863 L 293 865 L 294 865 L 296 867 L 297 867 L 298 868 L 299 868 L 301 870 L 302 870 L 303 871 L 304 871 L 305 872 L 306 872 L 307 873 L 308 873 L 310 875 L 311 875 L 312 876 L 313 876 L 314 877 L 315 877 L 316 878 L 317 878 L 318 879 L 319 879 L 320 880 L 321 880 L 322 881 L 323 881 L 324 882 L 325 882 L 326 883 L 327 883 L 328 884 L 329 884 L 330 885 L 331 885 L 332 886 L 333 886 L 334 887 L 335 887 L 336 888 L 337 888 L 338 889 L 340 889 L 341 890 L 342 890 L 343 891 L 344 891 L 345 892 L 347 892 L 348 893 L 349 893 L 350 894 L 351 894 L 352 895 L 354 895 L 355 896 L 356 896 L 357 897 L 359 897 L 360 898 L 361 898 L 362 899 L 364 899 L 365 900 L 366 900 L 367 901 L 369 901 L 370 902 L 372 902 L 373 903 L 375 903 L 376 904 L 378 904 L 379 905 L 381 905 L 382 906 L 384 906 L 385 907 L 387 907 L 388 908 L 390 908 L 391 909 L 393 909 L 394 910 L 397 910 L 398 911 L 400 911 L 401 912 L 404 912 L 405 913 L 408 913 L 409 914 L 412 914 L 413 915 L 416 915 L 417 916 L 421 916 L 422 917 L 425 917 L 426 918 L 430 918 L 431 919 L 436 919 L 437 920 L 441 920 L 442 921 L 447 921 L 448 922 L 453 922 L 454 923 L 461 923 L 462 924 L 470 924 L 471 925 L 481 925 L 482 926 L 539 926 L 540 925 L 551 925 L 552 924 L 560 924 L 561 923 L 568 923 L 569 922 L 575 922 L 576 921 L 581 921 L 582 920 L 586 920 L 587 919 L 592 919 L 593 918 L 597 918 L 598 917 L 601 917 L 602 916 L 606 916 L 607 915 L 610 915 L 611 914 L 614 914 L 615 913 L 618 913 L 619 912 L 622 912 L 623 911 L 625 911 L 626 910 L 628 910 L 629 909 L 632 909 L 633 908 L 635 908 L 636 907 L 638 907 L 639 906 L 642 906 L 643 905 L 645 905 L 646 904 L 648 904 L 649 903 L 651 903 L 652 902 L 653 902 L 654 901 L 656 901 L 657 900 L 659 900 L 660 899 L 662 899 L 663 898 L 664 898 L 665 897 L 667 897 L 668 896 L 670 896 L 671 895 L 672 895 L 673 894 L 674 894 L 675 893 L 677 893 L 678 892 L 679 892 L 680 891 L 681 891 L 682 890 L 684 890 L 685 889 L 686 889 L 687 888 L 688 888 L 689 887 L 690 887 L 691 886 L 692 886 L 693 885 L 694 885 L 695 884 L 696 884 L 697 883 L 698 883 L 699 882 L 700 882 L 701 881 L 702 881 L 703 880 L 704 880 L 705 879 L 706 879 L 707 878 L 708 878 L 709 877 L 710 877 L 711 876 L 712 876 L 713 875 L 714 875 L 715 874 L 716 874 L 718 872 L 719 872 L 720 871 L 721 871 L 722 870 L 723 870 L 725 868 L 726 868 L 727 867 L 728 867 L 729 866 L 730 866 L 732 864 L 733 864 L 735 862 L 736 862 L 737 861 L 738 861 L 740 859 L 741 859 L 743 857 L 744 857 L 746 855 L 747 855 L 749 853 L 750 853 L 752 851 L 753 851 L 756 848 L 757 848 L 759 846 L 760 846 L 763 843 L 764 843 L 768 839 L 769 839 L 772 836 L 773 836 L 777 832 L 778 832 L 783 827 L 784 827 L 792 819 L 793 819 L 824 788 L 824 787 L 830 781 L 830 780 L 836 774 L 836 773 L 840 769 L 840 768 L 843 765 L 843 764 L 846 761 L 846 760 L 849 757 L 849 756 L 852 753 L 852 752 L 855 749 L 855 748 L 857 746 L 857 745 L 859 743 L 859 742 L 861 740 L 861 739 L 863 737 L 863 736 L 865 734 L 865 733 L 867 731 L 867 730 L 869 728 L 869 727 L 870 726 L 870 725 L 872 723 L 872 722 L 873 721 L 873 720 L 875 718 L 875 717 L 876 716 L 876 715 L 877 714 L 877 713 L 879 711 L 879 710 L 880 709 L 880 708 L 881 707 L 881 706 L 882 705 L 882 704 L 883 703 L 883 702 L 884 701 L 884 700 L 885 699 L 885 698 L 886 697 L 886 696 L 887 695 L 887 694 L 888 693 L 888 692 L 889 691 L 889 690 L 890 689 L 890 688 L 891 687 L 891 686 L 892 685 L 892 684 L 893 683 L 893 682 L 894 681 L 894 680 L 895 679 L 895 677 L 896 676 L 896 675 L 897 674 L 897 673 L 898 672 L 898 670 L 899 669 L 899 668 L 900 667 L 900 666 L 901 665 L 901 663 L 902 662 L 902 660 L 903 659 L 903 658 L 904 657 L 904 655 L 905 654 L 905 652 L 906 651 L 906 650 L 907 649 L 907 647 L 908 646 L 908 644 L 909 643 L 909 641 L 910 640 L 910 638 L 911 637 L 911 635 L 912 634 L 912 632 L 913 631 L 913 628 L 914 627 L 914 625 L 915 624 L 915 621 L 916 620 L 916 617 L 917 616 L 917 613 L 918 612 L 918 610 L 919 609 L 919 605 L 920 604 L 920 601 L 921 600 L 921 596 L 922 595 L 922 592 L 923 591 L 923 586 L 924 585 L 924 580 L 925 579 L 925 573 L 926 572 L 926 565 L 927 564 L 927 556 L 928 555 L 928 546 L 929 545 L 929 534 L 930 533 L 930 483 L 929 482 L 929 471 L 928 470 L 928 461 L 927 460 L 927 453 L 926 452 L 926 446 L 925 445 L 925 440 L 924 439 L 924 434 L 923 433 L 923 428 L 922 427 L 922 423 L 921 422 L 921 419 L 920 418 L 920 414 L 919 413 L 919 410 L 918 409 L 918 406 L 917 405 L 917 403 L 916 402 L 916 399 L 915 398 L 915 396 L 914 395 L 914 392 L 913 391 L 913 389 L 912 388 L 912 385 L 911 384 L 911 382 L 910 381 L 910 379 L 909 378 L 909 376 L 908 375 L 908 373 L 907 372 L 907 370 L 906 369 L 906 368 L 905 367 L 905 365 L 904 364 L 904 362 L 903 361 L 903 359 L 902 358 L 902 357 L 901 356 L 901 355 L 900 354 L 900 352 L 899 351 L 899 350 L 898 349 L 898 347 L 897 346 L 897 345 L 896 344 L 896 343 L 895 342 L 895 341 L 894 340 L 894 338 L 893 337 L 893 336 L 892 335 L 892 334 L 891 333 L 891 332 L 890 331 L 890 330 L 889 329 L 889 328 L 888 327 L 888 326 L 887 325 L 887 324 L 886 323 L 886 322 L 885 321 L 885 320 L 884 319 L 884 318 L 883 317 L 883 316 L 882 315 L 882 314 L 881 313 L 881 312 L 879 310 L 879 309 L 878 308 L 878 307 L 877 306 L 877 305 L 875 303 L 875 302 L 874 301 L 874 300 L 872 298 L 872 297 L 871 296 L 871 295 L 869 293 L 869 292 L 868 291 L 868 290 L 866 288 L 866 287 L 864 285 L 864 284 L 863 283 L 863 282 L 860 279 L 860 278 L 858 276 L 858 275 L 856 273 L 856 272 L 853 269 L 853 268 L 851 266 L 851 265 L 848 262 L 848 261 L 844 257 L 844 256 L 841 253 L 841 252 L 837 248 L 837 247 L 832 242 L 832 241 L 826 235 L 826 234 L 794 202 L 793 202 L 786 195 L 785 195 L 780 190 L 779 190 L 775 186 L 774 186 L 770 182 L 769 182 L 766 179 L 765 179 L 762 176 L 761 176 L 759 174 L 758 174 L 755 171 L 754 171 L 752 169 L 751 169 L 749 167 L 748 167 L 746 165 L 745 165 L 743 163 L 742 163 L 740 161 L 739 161 L 737 159 L 736 159 L 734 157 L 733 157 L 732 156 L 731 156 L 729 154 L 728 154 L 727 153 L 726 153 L 724 151 L 723 151 L 722 150 L 721 150 L 719 148 L 718 148 L 717 147 L 716 147 L 715 146 L 714 146 L 713 145 L 712 145 L 711 144 L 710 144 L 709 143 L 708 143 L 706 141 L 705 141 L 704 140 L 703 140 L 702 139 L 701 139 L 700 138 L 699 138 L 698 137 L 697 137 L 696 136 L 695 136 L 694 135 L 692 135 L 691 134 L 690 134 L 689 133 L 688 133 L 687 132 L 686 132 L 685 131 L 684 131 L 683 130 L 681 130 L 680 129 L 679 129 L 678 128 L 677 128 L 676 127 L 674 127 L 673 126 L 672 126 L 671 125 L 669 125 L 668 124 L 667 124 L 666 123 L 664 123 L 663 122 L 662 122 L 661 121 L 659 121 L 658 120 L 656 120 L 655 119 L 653 119 L 652 118 L 650 118 L 649 117 L 647 117 L 646 116 L 644 116 L 643 115 L 641 115 L 640 114 L 638 114 L 637 113 L 634 113 L 633 112 L 631 112 L 630 111 L 627 111 L 626 110 L 624 110 L 623 109 L 620 109 L 619 108 L 616 108 L 615 107 L 612 107 L 611 106 L 608 106 L 607 105 L 603 105 L 602 104 L 598 104 L 597 103 L 593 103 L 592 102 L 588 102 L 587 101 L 582 101 L 581 100 L 576 100 L 575 99 L 569 99 L 568 98 L 561 98 L 560 97 L 552 97 L 551 96 L 540 96 L 539 95 Z" />
</g>
</svg>